<?xml version="1.0" encoding="UTF-8" standalone="no"?>
<!-- Created with Inkscape (http://www.inkscape.org/) -->
<svg
   xmlns:dc="http://purl.org/dc/elements/1.1/"
   xmlns:cc="http://creativecommons.org/ns#"
   xmlns:rdf="http://www.w3.org/1999/02/22-rdf-syntax-ns#"
   xmlns:svg="http://www.w3.org/2000/svg"
   xmlns="http://www.w3.org/2000/svg"
   xmlns:sodipodi="http://sodipodi.sourceforge.net/DTD/sodipodi-0.dtd"
   xmlns:inkscape="http://www.inkscape.org/namespaces/inkscape"
   width="264.7132"
   height="186.0764"
   id="svg2"
   sodipodi:version="0.32"
   inkscape:version="0.46"
   version="1.0"
   inkscape:export-filename="TahoeLAFS-logo.png"
   inkscape:export-xdpi="58.119999"
   inkscape:export-ydpi="58.119999"
   sodipodi:docname="TahoeLAFS-logo.svg"
   inkscape:output_extension="org.inkscape.output.svg.inkscape">
  <sodipodi:namedview
     id="base"
     pagecolor="#ffffff"
     bordercolor="#666666"
     borderopacity="1.0"
     gridtolerance="10000"
     guidetolerance="10"
     objecttolerance="10"
     inkscape:pageopacity="0.0"
     inkscape:pageshadow="2"
     inkscape:zoom="1"
     inkscape:cx="201.87865"
     inkscape:cy="95.735931"
     inkscape:document-units="px"
     inkscape:current-layer="layer1"
     showgrid="false"
     inkscape:window-width="1598"
     inkscape:window-height="1198"
     inkscape:window-x="0"
     inkscape:window-y="0" />
  <defs
     id="defs4">
    <inkscape:path-effect
       effect="bend_path"
       id="path-effect14546"
       bendpath="M 134.959,106.822 L 225.937,106.822 "
       prop_scale="1" />
    <marker
       style="overflow:visible"
       id="Arrow2Mend"
       refX="0"
       refY="0"
       orient="auto"
       inkscape:stockid="Arrow2Mend">
      <path
         transform="scale(-0.6,-0.6)"
         d="M 8.7185878,4.0337352 L -2.2072895,0.016013256 L 8.7185884,-4.0017078 C 6.97309,-1.6296469 6.9831476,1.6157441 8.7185878,4.0337352 z"
         style="font-size:12px;fill-rule:evenodd;stroke-width:0.625;stroke-linejoin:round"
         id="path5982" />
    </marker>
    <inkscape:perspective
       id="perspective10"
       inkscape:persp3d-origin="372.04724 : 350.78739 : 1"
       inkscape:vp_z="744.09448 : 526.18109 : 1"
       inkscape:vp_y="0 : 1000 : 0"
       inkscape:vp_x="0 : 526.18109 : 1"
       sodipodi:type="inkscape:persp3d" />
  </defs>
  <metadata
     id="metadata7">
    <rdf:RDF>
      <cc:Work
         rdf:about="">
        <dc:format>image/svg+xml</dc:format>
        <dc:type
           rdf:resource="http://purl.org/dc/dcmitype/StillImage" />
      </cc:Work>
    </rdf:RDF>
  </metadata>
  <g
     transform="translate(-168.24726,-253.97546)"
     id="layer1"
     inkscape:groupmode="layer"
     inkscape:label="Layer 1">
    <path
       id="path3898"
       d="M 405,386.86218 C 405,399.83418 394.472,410.36218 381.5,410.36218 C 368.528,410.36218 358,399.83418 358,386.86218 C 358,373.89018 368.528,363.36218 381.5,363.36218 C 394.472,363.36218 405,373.89018 405,386.86218 z"
       style="fill:#000000;fill-opacity:1;fill-rule:evenodd;stroke:#000000;stroke-width:4;stroke-linecap:butt;stroke-linejoin:miter;stroke-miterlimit:4;stroke-opacity:1"
       transform="translate(-187.75274,12.133338)" />
    <path
       id="path3910"
       d="M 405,386.86218 C 405,399.83418 394.472,410.36218 381.5,410.36218 C 368.528,410.36218 358,399.83418 358,386.86218 C 358,373.89018 368.528,363.36218 381.5,363.36218 C 394.472,363.36218 405,373.89018 405,386.86218 z"
       style="fill:#000000;fill-opacity:1;fill-rule:evenodd;stroke:#000000;stroke-width:4;stroke-linecap:butt;stroke-linejoin:miter;stroke-miterlimit:4;stroke-opacity:1"
       transform="translate(-73.908554,27.689687)" />
    <path
       id="path3912"
       d="M 405,386.86218 C 405,399.83418 394.472,410.36218 381.5,410.36218 C 368.528,410.36218 358,399.83418 358,386.86218 C 358,373.89018 368.528,363.36218 381.5,363.36218 C 394.472,363.36218 405,373.89018 405,386.86218 z"
       style="fill:#000000;fill-opacity:1;fill-rule:evenodd;stroke:#000000;stroke-width:4;stroke-linecap:butt;stroke-linejoin:miter;stroke-miterlimit:4;stroke-opacity:1"
       transform="translate(-124.82024,-49.384961)" />
    <path
       inkscape:connector-type="polyline"
       id="path8275"
       d="M 407.24935,334.69295 L 220.57316,390.55439"
       style="fill:none;fill-rule:evenodd;stroke:#000000;stroke-width:2;stroke-linecap:butt;stroke-linejoin:miter;marker-start:none;marker-mid:none;marker-end:url(#Arrow2Mend);stroke-miterlimit:4;stroke-dasharray:none;stroke-opacity:1;display:inline" />
    <path
       inkscape:connector-type="polyline"
       id="path10337"
       d="M 407.95646,333.98584 L 284.91988,336.10716"
       style="fill:none;fill-rule:evenodd;stroke:#000000;stroke-width:2;stroke-linecap:butt;stroke-linejoin:miter;marker-start:none;marker-mid:none;marker-end:url(#Arrow2Mend);stroke-miterlimit:4;stroke-dasharray:none;stroke-opacity:1;display:inline" />
    <path
       id="text12399"
       d="M 169.92896,255.45203 L 199.53052,255.45203 L 199.53052,259.4364 L 187.10864,259.4364 L 187.10864,290.44421 L 182.35083,290.44421 L 182.35083,259.4364 L 169.92896,259.4364 L 169.92896,255.45203 M 207.89771,277.2489 C 204.41332,277.24891 201.99926,277.64735 200.65552,278.44421 C 199.31176,279.2411 198.63989,280.60047 198.63989,282.52234 C 198.63989,284.0536 199.13988,285.27234 200.13989,286.17859 C 201.15551,287.06922 202.53051,287.51453 204.26489,287.51453 C 206.6555,287.51453 208.56956,286.67078 210.00708,284.98328 C 211.46019,283.28016 212.18675,281.02235 212.18677,278.20984 L 212.18677,277.2489 L 207.89771,277.2489 M 216.49927,275.46765 L 216.49927,290.44421 L 212.18677,290.44421 L 212.18677,286.45984 C 211.20237,288.05359 209.97581,289.23328 208.50708,289.9989 C 207.03831,290.7489 205.24144,291.1239 203.11646,291.1239 C 200.42895,291.1239 198.28832,290.3739 196.69458,288.8739 C 195.11645,287.35828 194.32739,285.33484 194.32739,282.80359 C 194.32739,279.85047 195.31176,277.62391 197.28052,276.1239 C 199.26488,274.62392 202.21801,273.87392 206.13989,273.8739 L 212.18677,273.8739 L 212.18677,273.45203 C 212.18675,271.46767 211.5305,269.93642 210.21802,268.85828 C 208.92113,267.76455 207.093,267.21767 204.73364,267.21765 C 203.23363,267.21767 201.77269,267.39736 200.35083,267.75671 C 198.92895,268.11611 197.56176,268.65517 196.24927,269.3739 L 196.24927,265.38953 C 197.82739,264.78018 199.35863,264.32705 200.84302,264.03015 C 202.32738,263.71768 203.77269,263.56143 205.17896,263.5614 C 208.97581,263.56143 211.81175,264.5458 213.68677,266.51453 C 215.56174,268.4833 216.49924,271.46767 216.49927,275.46765 M 247.22583,274.60046 L 247.22583,290.44421 L 242.91333,290.44421 L 242.91333,274.74109 C 242.91331,272.25673 242.42893,270.39736 241.46021,269.16296 C 240.49144,267.92861 239.03831,267.31142 237.10083,267.3114 C 234.77269,267.31142 232.93676,268.05361 231.59302,269.53796 C 230.24926,271.02236 229.57738,273.04579 229.57739,275.60828 L 229.57739,290.44421 L 225.24146,290.44421 L 225.24146,253.97546 L 229.57739,253.97546 L 229.57739,268.27234 C 230.60863,266.69424 231.81957,265.51455 233.21021,264.73328 C 234.61644,263.95205 236.23363,263.56143 238.06177,263.5614 C 241.07737,263.56143 243.35862,264.49893 244.90552,266.3739 C 246.45237,268.2333 247.2258,270.97548 247.22583,274.60046 M 266.04614,267.21765 C 263.73363,267.21767 261.90551,268.12392 260.56177,269.9364 C 259.21801,271.7333 258.54614,274.20204 258.54614,277.34265 C 258.54614,280.48329 259.2102,282.95985 260.53833,284.77234 C 261.88207,286.56922 263.71801,287.46765 266.04614,287.46765 C 268.343,287.46765 270.16331,286.56141 271.50708,284.7489 C 272.85081,282.93641 273.52268,280.46766 273.52271,277.34265 C 273.52268,274.23329 272.85081,271.77236 271.50708,269.95984 C 270.16331,268.13174 268.343,267.21767 266.04614,267.21765 M 266.04614,263.5614 C 269.79612,263.56143 272.74143,264.78018 274.88208,267.21765 C 277.02268,269.65517 278.09299,273.03017 278.09302,277.34265 C 278.09299,281.63954 277.02268,285.01453 274.88208,287.46765 C 272.74143,289.90515 269.79612,291.1239 266.04614,291.1239 C 262.28051,291.1239 259.32738,289.90515 257.18677,287.46765 C 255.06176,285.01453 253.99926,281.63954 253.99927,277.34265 C 253.99926,273.03017 255.06176,269.65517 257.18677,267.21765 C 259.32738,264.78018 262.28051,263.56143 266.04614,263.5614 M 307.67114,276.24109 L 307.67114,278.35046 L 287.84302,278.35046 C 288.03051,281.31922 288.92113,283.58485 290.51489,285.14734 C 292.12426,286.69422 294.35863,287.46765 297.21802,287.46765 C 298.87425,287.46765 300.47581,287.26453 302.02271,286.85828 C 303.58518,286.45203 305.13206,285.84266 306.66333,285.03015 L 306.66333,289.10828 C 305.11643,289.76453 303.53049,290.26453 301.90552,290.60828 C 300.2805,290.95203 298.63206,291.1239 296.96021,291.1239 C 292.77269,291.1239 289.45238,289.90515 286.99927,287.46765 C 284.56176,285.03016 283.34301,281.73329 283.34302,277.57703 C 283.34301,273.28017 284.49926,269.87392 286.81177,267.35828 C 289.13988,264.82705 292.27269,263.56143 296.21021,263.5614 C 299.74144,263.56143 302.5305,264.70205 304.57739,266.98328 C 306.63987,269.24892 307.67112,272.33486 307.67114,276.24109 M 303.35864,274.97546 C 303.32737,272.61611 302.66331,270.7333 301.36646,269.32703 C 300.08519,267.9208 298.38206,267.21767 296.25708,267.21765 C 293.85082,267.21767 291.92113,267.89736 290.46802,269.25671 C 289.03051,270.61611 288.20239,272.53017 287.98364,274.9989 L 303.35864,274.97546 M 314.93677,255.45203 L 319.67114,255.45203 L 319.67114,286.45984 L 336.71021,286.45984 L 336.71021,290.44421 L 314.93677,290.44421 L 314.93677,255.45203 M 354.47583,260.11609 L 348.05396,277.53015 L 360.92114,277.53015 L 354.47583,260.11609 M 351.80396,255.45203 L 357.17114,255.45203 L 370.50708,290.44421 L 365.58521,290.44421 L 362.39771,281.46765 L 346.62427,281.46765 L 343.43677,290.44421 L 338.44458,290.44421 L 351.80396,255.45203 M 375.59302,255.45203 L 395.70239,255.45203 L 395.70239,259.4364 L 380.32739,259.4364 L 380.32739,269.7489 L 394.20239,269.7489 L 394.20239,273.73328 L 380.32739,273.73328 L 380.32739,290.44421 L 375.59302,290.44421 L 375.59302,255.45203 M 423.38208,256.60046 L 423.38208,261.21765 C 421.58518,260.35831 419.88987,259.71768 418.29614,259.29578 C 416.70237,258.87393 415.16331,258.663 413.67896,258.66296 C 411.10082,258.663 409.10863,259.163 407.70239,260.16296 C 406.31176,261.16299 405.61645,262.58487 405.61646,264.42859 C 405.61645,265.97549 406.07738,267.14736 406.99927,267.94421 C 407.93676,268.72549 409.70238,269.3583 412.29614,269.84265 L 415.15552,270.42859 C 418.68675,271.10048 421.28831,272.28798 422.96021,273.99109 C 424.64768,275.6786 425.49143,277.94423 425.49146,280.78796 C 425.49143,284.1786 424.3508,286.74891 422.06958,288.4989 C 419.80393,290.2489 416.47581,291.1239 412.08521,291.1239 C 410.42894,291.1239 408.66332,290.9364 406.78833,290.5614 C 404.92895,290.1864 402.99926,289.63171 400.99927,288.89734 L 400.99927,284.02234 C 402.92114,285.10047 404.80395,285.91297 406.64771,286.45984 C 408.49144,287.00672 410.30394,287.28015 412.08521,287.28015 C 414.78831,287.28015 416.87425,286.74891 418.34302,285.6864 C 419.81175,284.62391 420.54612,283.10828 420.54614,281.13953 C 420.54612,279.42079 420.01487,278.07704 418.95239,277.10828 C 417.9055,276.13954 416.17894,275.41298 413.77271,274.92859 L 410.88989,274.36609 C 407.35863,273.66298 404.80395,272.56142 403.22583,271.0614 C 401.6477,269.56142 400.85864,267.47549 400.85864,264.80359 C 400.85864,261.70987 401.94458,259.27237 404.11646,257.49109 C 406.30395,255.70987 409.31176,254.81925 413.13989,254.81921 C 414.7805,254.81925 416.45237,254.96769 418.15552,255.26453 C 419.85862,255.56144 421.60081,256.00675 423.38208,256.60046"
       style="font-size:18px;font-style:normal;font-variant:normal;font-weight:normal;font-stretch:normal;text-align:start;line-height:125%;writing-mode:lr-tb;text-anchor:start;fill:#000000;fill-opacity:1;stroke:none;stroke-width:1px;stroke-linecap:butt;stroke-linejoin:miter;stroke-opacity:1;font-family:DejaVu Sans;-inkscape-font-specification:DejaVu Sans" />
    <path
       style="fill:none;fill-rule:evenodd;stroke:#000000;stroke-width:2;stroke-linecap:butt;stroke-linejoin:miter;marker-start:none;marker-mid:none;marker-end:url(#Arrow2Mend);stroke-miterlimit:4;stroke-dasharray:none;stroke-opacity:1;display:inline"
       d="M 239.7092,85.303277 L 162.63456,151.77131"
       id="path14548"
       transform="translate(168.24726,247.97546)"
       inkscape:connector-type="polyline" />
    <path
       id="path3876"
       d="M 430.96046,333.48603 C 430.96046,346.45803 420.43246,356.98603 407.46046,356.98603 C 394.48846,356.98603 383.96046,346.45803 383.96046,333.48603 C 383.96046,320.51403 394.48846,309.98603 407.46046,309.98603 C 420.43246,309.98603 430.96046,320.51403 430.96046,333.48603 z"
       style="fill:#ff0000;fill-rule:evenodd;stroke:#f00000;stroke-width:4;stroke-linecap:butt;stroke-linejoin:miter;stroke-miterlimit:4;stroke-opacity:1" />
  </g>
</svg>
